<svg width="32" height="32" viewBox="0 0 32 32" fill="none" xmlns="http://www.w3.org/2000/svg">
<path d="M5.33331 29.3334C7.54245 29.3334 9.33331 27.5425 9.33331 25.3334C9.33331 23.1242 7.54245 21.3334 5.33331 21.3334C3.12417 21.3334 1.33331 23.1242 1.33331 25.3334C1.33331 27.5425 3.12417 29.3334 5.33331 29.3334Z" fill="#1B1B3A"/>
<path d="M29.3333 29.3334H24C24 16.8347 13.832 6.66671 1.33331 6.66671V1.33337C16.7721 1.33337 29.3333 13.8939 29.3333 29.3334Z" fill="#1B1B3A"/>
<path d="M20 29.3334H14.6666C14.6666 21.9812 8.68487 16.0001 1.33331 16.0001V10.6667C11.6263 10.6667 20 19.0404 20 29.3334Z" fill="#1B1B3A"/>
</svg>
