<svg width="30" height="28" viewBox="0 0 30 28" fill="none" xmlns="http://www.w3.org/2000/svg">
<path d="M6.76301 28H0.693641V9.38728H6.93642V28H6.76301ZM3.64162 6.79769C1.7341 6.79769 0 5.34104 0 3.39884C0 1.6185 1.56069 0 3.64162 0C5.54913 0 7.28324 1.45665 7.28324 3.39884C7.28324 5.34104 5.72254 6.79769 3.64162 6.79769ZM30 28H23.7572V18.9364C23.7572 16.8324 23.7572 14.0809 20.6358 14.0809C17.341 14.0809 16.9942 16.3468 16.9942 18.7746V28H10.7514V9.38728H16.6474V11.9769C17.5145 10.5202 19.422 9.06358 22.5434 9.06358C28.7861 9.06358 30 12.948 30 17.9653V28Z" fill="#1B1B3A"/>
</svg>
