<svg width="32" height="23" viewBox="0 0 32 23" fill="none" xmlns="http://www.w3.org/2000/svg">
<path d="M31.7333 4.92857C31.7333 4.92857 31.4667 2.60119 30.4 1.64286C29.2 0.27381 27.8667 0.27381 27.2 0.27381C22.6667 6.12012e-08 16 0 16 0C16 0 9.33333 6.12012e-08 4.8 0.27381C4.13333 0.410714 2.8 0.410715 1.6 1.64286C0.666667 2.60119 0.266667 4.92857 0.266667 4.92857C0.266667 4.92857 0 7.52976 0 10.2679V12.7321C0 15.3333 0.266667 18.0714 0.266667 18.0714C0.266667 18.0714 0.533333 20.3988 1.6 21.3571C2.8 22.7262 4.4 22.5893 5.06667 22.7262C7.6 23 16 23 16 23C16 23 22.6667 23 27.2 22.5893C27.8667 22.4524 29.2 22.4524 30.4 21.2202C31.3333 20.2619 31.7333 17.9345 31.7333 17.9345C31.7333 17.9345 32 15.3333 32 12.5952V10.131C32 7.52976 31.7333 4.92857 31.7333 4.92857ZM12.6667 15.744V6.57143L21.3333 11.2262L12.6667 15.744Z" fill="#1B1B3A"/>
</svg>
